PathFileType	4	(X/Y/Z)	T1_P1_NoVision_NoMovement_4_0-615.trc
DataRate	CameraRate	NumFrames	NumMarkers	Units	OrigDataRate	OrigDataStartFrame	OrigNumFrames
60	60	4	27	m	60	230	615
Frame#	Time	RHip			RKnee			RAnkle			RBigToe			RSmallToe			RHeel			LHip			LKnee			LAnkle			LBigToe			LSmallToe			LHeel			Neck			Head			Nose			RShoulder			RElbow			RWrist			RThumb			RIndex			RPinky			LShoulder			LElbow			LWrist			LThumb			LIndex			LPinky		
		X1	Y1	Z1	X2	Y2	Z2	X3	Y3	Z3	X4	Y4	Z4	X5	Y5	Z5	X6	Y6	Z6	X7	Y7	Z7	X8	Y8	Z8	X9	Y9	Z9	X10	Y10	Z10	X11	Y11	Z11	X12	Y12	Z12	X13	Y13	Z13	X14	Y14	Z14	X15	Y15	Z15	X16	Y16	Z16	X17	Y17	Z17	X18	Y18	Z18	X19	Y19	Z19	X20	Y20	Z20	X21	Y21	Z21	X22	Y22	Z22	X23	Y23	Z23	X24	Y24	Z24	X25	Y25	Z25	X26	Y26	Z26	X27	Y27	Z27
231	3.85	-66.17000718030943	3788.6687272335703	-545.9295310381342	290.229256149167	3855.5985464159785	-529.127239772159	644.1601588764827	4166.6330931575485	-584.8930588513583	700.3530439519054	3959.0622819285663	-491.18907473027525	716.0270554328237	4033.3199332892636	-599.238530700922	676.2961713735621	4185.881100111265	-556.0453023580974	-101.54446364625936	3904.048984414435	-357.4230907386199	239.98960292036543	4001.643989148164	-358.46153183669895	583.5508893531996	4185.2244807756515	-377.0095807329654	675.9019792739343	4131.195014458713	-328.6760695851258	635.9781487514191	4137.899478821528	-292.48454778284713	622.3695460285518	4236.119820654327	-413.4109591190452	-665.1460258356663	3654.368580042255	-464.5613894222545	-907.9841103755915	3540.9056673421815	-435.37785658083976	-752.6262757161902	3530.5914870246725	-394.28118478784603	-557.2077067362704	3634.317531142779	-623.1787428682189	-293.5356994492426	3750.6690812611428	-706.1068503496552	-39.54166894852896	3654.5125386771115	-605.406558708192	74.97323204089132	3768.260902233928	-570.1755012548546	91.15931603034902	3741.709954033327	-569.2770241675642	84.57972477279083	3700.244034337712	-587.168492033425	-604.3061310825276	3747.220899621083	-335.29489490879746	-386.6216631268354	3982.0648420100733	-338.72565093251575	-122.77433666243016	3979.262902780049	-299.8742259372488	16.73138422300363	3932.4202878914202	-321.7098420302778	29.163996044733295	3925.2829267062243	-280.8755185636965	7.301327220918652	3994.0501814591003	-246.86006778552206
232	3.8666666666666663	-66.16189239126076	3789.4207539174395	-546.1283747327298	291.08264777602966	3860.6589142850607	-532.9220863972188	647.2857635951119	4167.266545145636	-584.5371879979755	701.9933351965897	3953.139388108678	-488.7872439541992	718.7741537239277	4033.6280484741624	-598.7500344355195	677.963026703767	4183.53746581297	-553.792968464373	-101.66659869026135	3903.7752111777295	-357.26778094754474	240.20172531766804	4006.3288600299666	-359.33954086001734	582.8721073410778	4184.389834832942	-376.5449339287919	676.813722940732	4131.952824521164	-328.5750222735761	636.1450347934267	4137.494937418942	-292.11148592045856	620.1285752066979	4229.569574636387	-410.8344399023083	-665.1293015210165	3654.4124295062106	-464.5978643981131	-907.8671004261569	3540.9237641942104	-433.32501504736683	-751.319209876666	3535.423473852096	-397.6233525906691	-557.2049560656561	3634.2497708588567	-623.1332770242338	-293.595615537987	3750.5943140385093	-706.0444086920161	-39.51375152203034	3656.372063412142	-604.4057552660283	75.87469622560404	3768.7095855094344	-570.3808231728485	91.29636775397775	3741.9389554550444	-569.1565491658109	84.56456977535821	3700.7224238538997	-587.2442347511255	-604.2978535825645	3747.2632378284984	-335.31084785911327	-386.61828615837226	3982.07777513038	-338.7453712002294	-122.74923283529819	3979.6016552615947	-299.91896176060004	16.083544335100438	3931.917544205061	-321.4577505025088	29.077052859384864	3924.9779544432527	-280.7075957967708	7.8683406475517845	3999.8980475234493	-250.451717155025
233	3.883333333333333	-66.15836875396255	3789.2387594228485	-546.1205837957009	291.9059416483903	3863.0487464368507	-534.663472757112	648.6266840267917	4167.57640760263	-584.4398162513991	701.647939704814	3947.7590358230427	-485.50882455646365	720.4080849199722	4033.6583679504433	-598.0359787320095	679.8135222392781	4183.916958082607	-553.7223015698254	-102.90404548956296	3903.2085236303183	-357.0868404731573	240.0446541184603	4004.194464325386	-359.0066177133381	583.0412658817139	4188.87413122239	-379.51625564988893	677.3892713645145	4132.867366342117	-328.8734943087505	637.2609177243936	4138.257434925727	-292.0071153639753	619.2570056910981	4230.457812453794	-410.51729304161825	-664.9660779563474	3654.4739115675147	-464.60787037092376	-908.6208769624692	3540.782813966327	-431.77234180297404	-750.2602983865265	3538.056554390544	-399.07895650353163	-557.2519068685219	3634.623132750581	-623.4580627738501	-293.61159345650555	3750.4353352501807	-705.9524201210425	-40.08036051910098	3659.928213377855	-604.4900173259377	76.21379141869285	3768.726076454622	-570.3932677362607	90.53120560595517	3746.1447138560425	-570.7329158748943	84.6108560401118	3704.5166300852206	-588.1906702432084	-604.2881700444573	3747.2852538249235	-335.3238876645139	-386.6216268900083	3982.112973753355	-338.762876505273	-122.74138396200124	3979.7602657463603	-299.95979597341505	15.166986166882037	3931.2599120226923	-321.15116336063153	29.008507265171808	3924.776078155628	-280.60042435221965	8.236570742899797	4006.6592089379856	-255.5307312310613
234	3.9	-66.17114515341387	3788.99328333525	-546.0996765818268	292.4788859261714	3862.155583211416	-533.8951341364572	648.1456244276401	4167.310667319549	-584.5390664634829	700.068994339552	3947.3760985433155	-482.82035637905113	720.7243759517386	4033.4413701383246	-597.5693078822496	681.2339339792147	4187.276801671067	-556.2311564215125	-104.13726001283453	3902.8818808810092	-357.0439811357614	239.73673538111626	3999.2147878263418	-358.1658968634512	583.679662668103	4194.285328104674	-383.0405484411316	676.9721041857371	4132.75616958417	-329.0938551301803	638.5249846031016	4139.091230167821	-291.9850920657856	619.6314570089895	4235.6233627240135	-411.56696073590103	-664.8590319213229	3654.481117146206	-464.59722126800307	-909.6273689605706	3540.59029312465	-431.1306668200781	-749.7686916209213	3538.586185645023	-399.19891880130456	-557.2748905854708	3634.8407556640923	-623.652514866497	-293.58650906378773	3750.2283889009186	-705.8464183329422	-40.24788769330089	3663.8781550424083	-605.2857871780244	76.12233412656576	3768.615533322592	-570.3353334898633	89.6733749744136	3754.612396210623	-574.0013860562008	84.74134105531085	3711.6397937976426	-589.9057349784789	-604.2714702584169	3747.2752736610996	-335.32689847571123	-386.61995637059516	3982.166729893757	-338.76683690177344	-122.75599239445236	3979.7820513208235	-299.9927812349642	14.694553791752403	3930.9718558227923	-321.03401403303627	28.993576005266043	3924.7459128534515	-280.6217433917489	7.953594519729362	4010.396930110474	-259.8147761249159
